<svg xmlns="http://www.w3.org/2000/svg" width="365.822" height="491.378" viewBox="0 0 365.822 491.378">
  <g id="Group_63740" data-name="Group 63740" transform="translate(6719.5 -11263.622)">
    <g id="Ellipse_2991" data-name="Ellipse 2991" transform="translate(-6645 11711)" stroke="#00e5ff" stroke-width="8">
      <ellipse cx="108.5" cy="22" rx="108.5" ry="22" stroke="none"/>
      <ellipse cx="108.5" cy="22" rx="104.5" ry="18" fill="none"/>
    </g>
    <path id="Path_116506" data-name="Path 116506" d="M-6712.526,11560c36.735-37,96.567-50.519,174-50,75.1.5,150.678,14.025,183,50,.68.757-7.978,65.644-42.186,105.129-41.053,47.386-102.845,73.871-140.814,73.871-36.333,0-97.052-27.561-136.391-73.871C-6712.71,11620.634-6720.958,11568.491-6712.526,11560Z" transform="translate(-0.959)" fill="#00e5ff" stroke="#00e5ff" stroke-linecap="round" stroke-linejoin="round" stroke-width="6"/>
    <path id="Path_116503" data-name="Path 116503" d="M-6658.691,11221.163s37.37,8.8,30.943,42.848-46.3,40.691-48.728,82.238,55.514,66.291,55.514,66.291-30.372-19.914-17.989-66.291c5.176-19.386,20.483-28.325,30.1-41.124,13-17.3,19.9-36.838,17.471-56.651C-6595.554,11214.43-6658.691,11221.163-6658.691,11221.163Z" transform="translate(178.377 43)" fill="#00e5ff"/>
    <path id="Path_116504" data-name="Path 116504" d="M-6658.691,11221.163s37.37,8.8,30.943,42.848-46.3,40.691-48.728,82.238,55.514,66.291,55.514,66.291-30.372-19.914-17.989-66.291c5.176-19.386,20.483-28.325,30.1-41.124,13-17.3,19.9-36.838,17.471-56.651C-6595.554,11214.43-6658.691,11221.163-6658.691,11221.163Z" transform="translate(92.724 43)" fill="#00e5ff"/>
    <path id="Path_116505" data-name="Path 116505" d="M-6658.691,11221.163s37.37,8.8,30.943,42.848-46.3,40.691-48.728,82.238,55.514,66.291,55.514,66.291-30.372-19.914-17.989-66.291c5.176-19.386,20.483-28.325,30.1-41.124,13-17.3,19.9-36.838,17.471-56.651C-6595.554,11214.43-6658.691,11221.163-6658.691,11221.163Z" transform="translate(7.071 43)" fill="#00e5ff"/>
    <g id="Ellipse_2992" data-name="Ellipse 2992" transform="translate(-6693 11525)" stroke="#00e5ff" stroke-width="5">
      <ellipse cx="157.5" cy="41.5" rx="157.5" ry="41.5" stroke="none"/>
      <ellipse cx="157.5" cy="41.5" rx="155" ry="39" fill="none"/>
    </g>
  </g>
</svg>
