<svg xmlns="http://www.w3.org/2000/svg" width="332.787" height="113.663" viewBox="0 0 332.787 113.663">
  <g id="Group_63740" data-name="Group 63740" transform="translate(8285.787 -10870.698)">
    <text id="Reel-lax" transform="translate(-8066 10936)" fill="#8854ff" font-size="63" font-family="Futura-Medium, Futura" font-weight="500"><tspan x="-112.326" y="0">Reel-lax</tspan></text>
    <g id="AdobeStock_556501391" transform="translate(-8285.787 10870.698)">
      <path id="Path_116505" data-name="Path 116505" d="M171.611,166.94a4.672,4.672,0,1,0,4.672,4.672A4.677,4.677,0,0,0,171.611,166.94Z" transform="translate(-127.693 -127.694)" fill="#8854ff"/>
      <path id="Path_116506" data-name="Path 116506" d="M204.35,402.595V412.62c2.664-.042,5.385.027,8.065.1,1.03.027,2.05.053,3.056.074V402.782c-2.371,0-4.806-.054-7.219-.109C206.929,402.643,205.624,402.615,204.35,402.595Z" transform="translate(-156.309 -307.948)" fill="#8854ff"/>
      <path id="Path_116507" data-name="Path 116507" d="M283.379,335.2a24.113,24.113,0,0,1,9.611,6.122,9.718,9.718,0,0,0,4.6-8.974,26.017,26.017,0,0,0-5.592-3.529A46.047,46.047,0,0,1,283.379,335.2Z" transform="translate(-216.759 -251.518)" fill="#8854ff"/>
      <path id="Path_116508" data-name="Path 116508" d="M94.842,426.625a47.179,47.179,0,0,1,10.426-6.209V409.15a31.1,31.1,0,0,0-10.426,5.673v11.8Z" transform="translate(-72.545 -312.962)" fill="#8854ff"/>
      <path id="Path_116509" data-name="Path 116509" d="M87.837,43.918A43.918,43.918,0,1,0,43.918,87.837,43.968,43.968,0,0,0,87.837,43.918Zm-50.472,0a6.553,6.553,0,1,1,6.553,6.553A6.56,6.56,0,0,1,37.365,43.918Zm35.768,23.49a13.9,13.9,0,1,1-2.484-10.344A13.808,13.808,0,0,1,73.133,67.408Zm-8.452-44.85a13.9,13.9,0,1,1-8.924,17.514A13.808,13.808,0,0,1,64.681,22.558ZM43.918,3.672a13.9,13.9,0,1,1-13.9,13.9A13.915,13.915,0,0,1,43.918,3.672ZM5.642,31.482a13.9,13.9,0,0,1,17.514-8.924h0A13.9,13.9,0,1,1,5.642,31.482ZM39.677,73.4A13.9,13.9,0,1,1,36.6,53.989,13.892,13.892,0,0,1,39.677,73.4Z" fill="#8854ff"/>
      <path id="Path_116510" data-name="Path 116510" d="M259.654,409.235a54.042,54.042,0,0,0,10.277-.646c.44-.083.871-.182,1.295-.291V397.909a46.571,46.571,0,0,1-11.572,1.276Z" transform="translate(-198.611 -304.364)" fill="#8854ff"/>
      <path id="Path_116512" data-name="Path 116512" d="M324.625,353.764c-.709,2.34-2.543,5.6-7.249,7.823q-.243.115-.5.222v10.453a15.64,15.64,0,0,0,10.64-14.8,9.065,9.065,0,0,0-2.456-5.9A11.55,11.55,0,0,1,324.625,353.764Z" transform="translate(-242.382 -268.917)" fill="#8854ff"/>
      <path id="Path_116513" data-name="Path 116513" d="M149.021,403.088c-.629.125-1.238.267-1.83.421v11.08a30.858,30.858,0,0,1,4.753-1.3,47.64,47.64,0,0,1,6.8-.7v-10.1A52.056,52.056,0,0,0,149.021,403.088Z" transform="translate(-112.588 -307.869)" fill="#8854ff"/>
    </g>
  </g>
</svg>
